<svg xmlns="http://www.w3.org/2000/svg" xmlns:xlink="http://www.w3.org/1999/xlink" version="1.1" width="256" height="32" viewBox="0 0 256 32"><defs><g id="icon-link"><path class="path1" d="M22.667 1.333q1.573 0 3.036 0.594t2.62 1.75 1.75 2.62 0.594 3.036q0 1.563-0.599 3.036t-1.745 2.62l-4 4q-0.115 0.115-0.344 0.323-1.115 0.99-2.49 1.505t-2.823 0.516q-1.823 0-3.448-0.781-1.219-0.573-2.208-1.563t-1.563-2.208q0.781-0.781 1.885-0.781 0.385 0 0.781 0.115 0.677 1.094 1.771 1.771 1.281 0.781 2.781 0.781 1.042 0 2.021-0.396t1.75-1.167l4-4q0.771-0.771 1.167-1.75t0.396-2.021-0.396-2.021-1.167-1.75-1.75-1.167-2.021-0.396-2.021 0.396-1.75 1.167l-2.802 2.802q-1.333-0.365-2.76-0.365-0.229 0-0.646 0.021 0.208-0.229 0.323-0.344l4-4q1.146-1.146 2.62-1.745t3.036-0.599zM13.333 10.667q1.823 0 3.448 0.781 1.219 0.573 2.208 1.563t1.563 2.208q-0.781 0.781-1.885 0.781-0.385 0-0.781-0.115-0.677-1.094-1.771-1.771-1.281-0.781-2.781-0.781-1.042 0-2.021 0.396t-1.75 1.167l-4 4q-0.771 0.771-1.167 1.75t-0.396 2.021 0.396 2.021 1.167 1.75 1.75 1.167 2.021 0.396 2.021-0.396 1.75-1.167l2.802-2.802q1.333 0.365 2.76 0.365 0.229 0 0.646-0.021-0.208 0.229-0.323 0.344l-4 4q-1.156 1.156-2.62 1.75t-3.036 0.594q-1.563 0-3.036-0.599t-2.62-1.745q-1.156-1.156-1.75-2.62t-0.594-3.036 0.594-3.036 1.75-2.62l4-4q0.115-0.115 0.344-0.323 1.115-0.99 2.49-1.505t2.823-0.516z"/></g><g id="icon-signal"><path class="path1" d="M16 5.333q4.094 0 7.969 1.438t7.031 4.229q0.448 0.385 0.448 1 0 0.521-0.333 0.885l-0.063 0.063q-0.385 0.385-0.938 0.385-0.521 0-0.885-0.333-2.781-2.458-6.203-3.729t-7.026-1.271-7.026 1.271-6.203 3.729q-0.365 0.333-0.885 0.333-0.615 0-1-0.448-0.333-0.365-0.333-0.885 0-0.615 0.448-1 3.167-2.792 7.036-4.229t7.964-1.438zM16.01 21.333q1.813 0 3.365 0.917 0.313 0.188 0.49 0.495t0.177 0.661-0.188 0.667q-0.094 0.156-0.208 0.271-0.385 0.385-0.948 0.385-0.375 0-0.667-0.177-0.948-0.552-2.021-0.552-1.083 0-2.031 0.552-0.333 0.188-0.677 0.188-0.76 0-1.156-0.656-0.188-0.313-0.188-0.667 0-0.76 0.656-1.156 1.573-0.927 3.396-0.927zM16 13.344q2.521 0 4.906 0.833t4.375 2.469q0.49 0.396 0.49 1.031 0 0.479-0.302 0.844-0.063 0.083-0.083 0.104-0.385 0.385-0.938 0.385-0.49 0-0.854-0.302-1.625-1.333-3.583-2.021t-4.01-0.688-4.01 0.688-3.583 2.021q-0.365 0.302-0.844 0.302-0.635 0-1.031-0.49-0.302-0.365-0.302-0.844 0-0.635 0.49-1.031 1.979-1.635 4.375-2.469t4.906-0.833z"/></g><g id="icon-clock"><path class="path1" d="M16 1.333q2.99 0 5.703 1.161t4.677 3.125 3.125 4.677 1.161 5.703-1.161 5.703-3.125 4.677-4.677 3.125-5.703 1.161-5.703-1.161-4.677-3.125-3.125-4.677-1.161-5.703 1.161-5.703 3.125-4.677 4.677-3.125 5.703-1.161zM16 4q-2.438 0-4.661 0.953t-3.828 2.557-2.557 3.828-0.953 4.661 0.953 4.661 2.557 3.828 3.828 2.557 4.661 0.953 4.661-0.953 3.828-2.557 2.557-3.828 0.953-4.661-0.953-4.661-2.557-3.828-3.828-2.557-4.661-0.953zM16 6.667q0.552 0 0.943 0.391t0.391 0.943v7.448l3.615 3.604q0.385 0.385 0.385 0.948t-0.385 0.948-0.948 0.385-0.948-0.385l-4-4q-0.385-0.385-0.385-0.948v-8q0-0.552 0.391-0.943t0.943-0.391z"/></g><g id="icon-search"><path class="path1" d="M13.333 1.333q2.438 0 4.661 0.953t3.828 2.557 2.557 3.828 0.953 4.661q0 2.094-0.682 4.01t-1.943 3.479l7.573 7.563q0.385 0.385 0.385 0.948 0 0.573-0.38 0.953t-0.953 0.38q-0.563 0-0.948-0.385l-7.563-7.573q-1.563 1.26-3.479 1.943t-4.01 0.682q-2.438 0-4.661-0.953t-3.828-2.557-2.557-3.828-0.953-4.661 0.953-4.661 2.557-3.828 3.828-2.557 4.661-0.953zM13.333 4q-1.896 0-3.625 0.74t-2.979 1.99-1.99 2.979-0.74 3.625 0.74 3.625 1.99 2.979 2.979 1.99 3.625 0.74 3.625-0.74 2.979-1.99 1.99-2.979 0.74-3.625-0.74-3.625-1.99-2.979-2.979-1.99-3.625-0.74z"/></g><g id="icon-location"><path class="path1" d="M0 14.667l32-14.667-14.667 32-4-13.333zM17.854 24.458l8.729-19.042-19.042 8.729 7.938 2.375z"/></g><g id="icon-location-2"><path class="path1" d="M16 1.333q2.99 0 5.703 1.161t4.677 3.125 3.125 4.677 1.161 5.703-1.161 5.703-3.125 4.677-4.677 3.125-5.703 1.161-5.703-1.161-4.677-3.125-3.125-4.677-1.161-5.703 1.161-5.703 3.125-4.677 4.677-3.125 5.703-1.161zM17.333 4.073v3.927q0 0.552-0.391 0.943t-0.943 0.391-0.943-0.391-0.391-0.943v-3.927q-2.063 0.229-3.911 1.135t-3.245 2.302-2.302 3.245-1.135 3.911h3.927q0.552 0 0.943 0.391t0.391 0.943-0.391 0.943-0.943 0.391h-3.927q0.229 2.063 1.135 3.911t2.302 3.245 3.245 2.302 3.911 1.135v-3.927q0-0.552 0.391-0.943t0.943-0.391 0.943 0.391 0.391 0.943v3.927q2.063-0.229 3.911-1.135t3.245-2.302 2.302-3.245 1.135-3.911h-3.927q-0.552 0-0.943-0.391t-0.391-0.943 0.391-0.943 0.943-0.391h3.927q-0.229-2.063-1.135-3.911t-2.302-3.245-3.245-2.302-3.911-1.135z"/></g><g id="icon-arrow-left"><path class="path1" d="M13.333 5.333q0.552 0 0.943 0.391t0.391 0.943q0 0.563-0.396 0.948l-7.052 7.052h20.781q0.552 0 0.943 0.391t0.391 0.943-0.391 0.943-0.943 0.391h-20.781l7.052 7.052q0.396 0.385 0.396 0.948 0 0.552-0.391 0.943t-0.943 0.391q-0.563 0-0.948-0.385l-9.333-9.333q-0.385-0.406-0.385-0.948t0.385-0.948l9.333-9.333q0.396-0.385 0.948-0.385z"/></g><g id="icon-arrow-right"><path class="path1" d="M18.667 5.333q0.563 0 0.948 0.385l9.333 9.333q0.385 0.385 0.385 0.948t-0.385 0.948l-9.333 9.333q-0.385 0.385-0.948 0.385-0.573 0-0.953-0.38t-0.38-0.953q0-0.563 0.385-0.948l7.063-7.052h-20.781q-0.552 0-0.943-0.391t-0.391-0.943 0.391-0.943 0.943-0.391h20.781l-7.063-7.052q-0.385-0.385-0.385-0.948 0-0.573 0.38-0.953t0.953-0.38z"/></g></defs><g fill="#333"><use xlink:href="#icon-link" transform="translate(0 0)"/><use xlink:href="#icon-signal" transform="translate(32 0)"/><use xlink:href="#icon-clock" transform="translate(64 0)"/><use xlink:href="#icon-search" transform="translate(96 0)"/><use xlink:href="#icon-location" transform="translate(128 0)"/><use xlink:href="#icon-location-2" transform="translate(160 0)"/><use xlink:href="#icon-arrow-left" transform="translate(192 0)"/><use xlink:href="#icon-arrow-right" transform="translate(224 0)"/></g></svg>
