<svg xmlns="http://www.w3.org/2000/svg" xmlns:xlink="http://www.w3.org/1999/xlink" width="320" height="64" viewBox="0 0 320 64">
<defs>
<g id="search">
  <path d="M13.333 1.333q2.438 0 4.661 0.953t3.828 2.557 2.557 3.828 0.953 4.661q0 2.094-0.682 4.010t-1.943 3.479l7.573 7.563q0.385 0.385 0.385 0.948 0 0.573-0.38 0.953t-0.953 0.38q-0.563 0-0.948-0.385l-7.563-7.573q-1.563 1.26-3.479 1.943t-4.010 0.682q-2.438 0-4.661-0.953t-3.828-2.557-2.557-3.828-0.953-4.661 0.953-4.661 2.557-3.828 3.828-2.557 4.661-0.953zM13.333 4q-1.896 0-3.625 0.74t-2.979 1.99-1.99 2.979-0.74 3.625 0.74 3.625 1.99 2.979 2.979 1.99 3.625 0.74 3.625-0.74 2.979-1.99 1.99-2.979 0.74-3.625-0.74-3.625-1.99-2.979-2.979-1.99-3.625-0.74z"></path>
</g>
<g id="address">
  <path d="M0 14.667l32-14.667-14.667 32-4-13.333zM17.854 24.458l8.729-19.042-19.042 8.729 7.938 2.375z"></path>
</g>
<g id="position">
  <path d="M16 1.333q2.99 0 5.703 1.161t4.677 3.125 3.125 4.677 1.161 5.703-1.161 5.703-3.125 4.677-4.677 3.125-5.703 1.161-5.703-1.161-4.677-3.125-3.125-4.677-1.161-5.703 1.161-5.703 3.125-4.677 4.677-3.125 5.703-1.161zM17.333 4.073v3.927q0 0.552-0.391 0.943t-0.943 0.391-0.943-0.391-0.391-0.943v-3.927q-2.063 0.229-3.911 1.135t-3.245 2.302-2.302 3.245-1.135 3.911h3.927q0.552 0 0.943 0.391t0.391 0.943-0.391 0.943-0.943 0.391h-3.927q0.229 2.063 1.135 3.911t2.302 3.245 3.245 2.302 3.911 1.135v-3.927q0-0.552 0.391-0.943t0.943-0.391 0.943 0.391 0.391 0.943v3.927q2.063-0.229 3.911-1.135t3.245-2.302 2.302-3.245 1.135-3.911h-3.927q-0.552 0-0.943-0.391t-0.391-0.943 0.391-0.943 0.943-0.391h3.927q-0.229-2.063-1.135-3.911t-2.302-3.245-3.245-2.302-3.911-1.135z"></path>
</g>
<g id="left">
  <path d="M13.333 5.333q0.552 0 0.943 0.391t0.391 0.943q0 0.563-0.396 0.948l-7.052 7.052h20.781q0.552 0 0.943 0.391t0.391 0.943-0.391 0.943-0.943 0.391h-20.781l7.052 7.052q0.396 0.385 0.396 0.948 0 0.552-0.391 0.943t-0.943 0.391q-0.563 0-0.948-0.385l-9.333-9.333q-0.385-0.406-0.385-0.948t0.385-0.948l9.333-9.333q0.396-0.385 0.948-0.385z"></path>
</g>
<g id="right">
  <path d="M18.667 5.333q0.563 0 0.948 0.385l9.333 9.333q0.385 0.385 0.385 0.948t-0.385 0.948l-9.333 9.333q-0.385 0.385-0.948 0.385-0.573 0-0.953-0.38t-0.38-0.953q0-0.563 0.385-0.948l7.063-7.052h-20.781q-0.552 0-0.943-0.391t-0.391-0.943 0.391-0.943 0.943-0.391h20.781l-7.063-7.052q-0.385-0.385-0.385-0.948 0-0.573 0.38-0.953t0.953-0.38z"></path>
</g>
<g id="up">
  <path d="M16 2.667q0.563 0 0.948 0.385l9.333 9.333q0.385 0.385 0.385 0.948 0 0.573-0.38 0.953t-0.953 0.38q-0.563 0-0.948-0.385l-7.052-7.063v20.781q0 0.552-0.391 0.943t-0.943 0.391-0.943-0.391-0.391-0.943v-20.781l-7.052 7.063q-0.385 0.385-0.948 0.385-0.573 0-0.953-0.38t-0.38-0.953q0-0.563 0.385-0.948l9.333-9.333q0.385-0.385 0.948-0.385z"></path>
</g>
<g id="down">
  <path d="M16 2.667q0.552 0 0.943 0.391t0.391 0.943v20.781l7.052-7.063q0.385-0.385 0.948-0.385 0.573 0 0.953 0.38t0.38 0.953q0 0.563-0.385 0.948l-9.333 9.333q-0.385 0.385-0.948 0.385t-0.948-0.385l-9.333-9.333q-0.385-0.385-0.385-0.948 0-0.573 0.38-0.953t0.953-0.38q0.563 0 0.948 0.385l7.052 7.063v-20.781q0-0.552 0.391-0.943t0.943-0.391z"></path>
</g>
<g id="maximise">
  <path d="M18.667 17.323q0.552 0 0.948 0.396l8.385 8.385v-6.115q0-0.552 0.391-0.943t0.943-0.391 0.943 0.391 0.391 0.943v9.333q0 0.552-0.396 0.948t-0.948 0.396h-9.333q-0.552 0-0.943-0.391t-0.391-0.943 0.391-0.943 0.943-0.391h6.115l-8.385-8.385q-0.385-0.406-0.385-0.948 0-0.552 0.391-0.948t0.943-0.396zM2.667 1.333h9.333q0.552 0 0.943 0.391t0.391 0.943-0.391 0.943-0.943 0.391h-6.115l8.385 8.375q0.396 0.396 0.396 0.948t-0.396 0.943-0.948 0.391q-0.531 0-0.948-0.385l-8.375-8.385v6.115q0 0.552-0.391 0.943t-0.943 0.391-0.943-0.391-0.391-0.943v-9.333q0-0.552 0.391-0.943t0.943-0.391z"></path>
</g>
<g id="close">
  <path d="M25.333 5.333q0.573 0 0.953 0.38t0.38 0.953q0 0.563-0.385 0.948l-8.396 8.385 8.396 8.385q0.385 0.385 0.385 0.948 0 0.573-0.38 0.953t-0.953 0.38q-0.563 0-0.948-0.385l-8.385-8.396-8.385 8.396q-0.385 0.385-0.948 0.385-0.573 0-0.953-0.38t-0.38-0.953q0-0.563 0.385-0.948l8.396-8.385-8.396-8.385q-0.385-0.385-0.385-0.948 0-0.573 0.38-0.953t0.953-0.38q0.563 0 0.948 0.385l8.385 8.396 8.385-8.396q0.385-0.385 0.948-0.385z"></path>
</g>
<g id="move">
  <path d="M16 0q0.563 0 0.948 0.385l4.708 4.719q0.396 0.396 0.396 0.948t-0.391 0.943-0.943 0.391-0.948-0.396l-2.438-2.438v10.115h10.115l-2.438-2.438q-0.396-0.396-0.396-0.948t0.391-0.943 0.943-0.391 0.948 0.396l4.719 4.708q0.385 0.385 0.385 0.948t-0.385 0.938l-4.719 4.719q-0.396 0.396-0.948 0.396t-0.943-0.391-0.391-0.943 0.396-0.948l2.438-2.438h-10.115v10.115l2.438-2.438q0.396-0.396 0.948-0.396t0.943 0.391 0.391 0.943-0.396 0.948l-4.708 4.719q-0.385 0.385-0.948 0.385-0.552 0-0.938-0.385l-4.719-4.719q-0.396-0.396-0.396-0.948t0.391-0.943 0.943-0.391 0.948 0.396l2.438 2.438v-10.115h-10.115l2.438 2.438q0.396 0.396 0.396 0.948t-0.391 0.943-0.943 0.391-0.948-0.396l-4.719-4.708q-0.385-0.385-0.385-0.948t0.385-0.948l4.719-4.708q0.396-0.396 0.948-0.396t0.943 0.391 0.391 0.943-0.396 0.948l-2.438 2.438h10.115v-10.115l-2.438 2.438q-0.396 0.396-0.948 0.396t-0.943-0.391-0.391-0.943 0.396-0.948l4.708-4.719q0.385-0.385 0.948-0.385z"></path>
</g>
</defs>

<g fill="#333">
  <use xlink:href="#search" transform="translate(0 0)"></use>
  <use xlink:href="#address" transform="translate(32 0)"></use>
  <use xlink:href="#position" transform="translate(64 0)"></use>
  <use xlink:href="#left" transform="translate(96 0)"></use>
  <use xlink:href="#right" transform="translate(128 0)"></use>
  <use xlink:href="#up" transform="translate(160 0)"></use>
  <use xlink:href="#down" transform="translate(192 0)"></use>
  <use xlink:href="#maximise" transform="translate(224 0)"></use>
  <use xlink:href="#close" transform="translate(256 0)"></use>
  <use xlink:href="#move" transform="translate(288 0)"></use>
</g>

<g fill="#FFF">
  <use xlink:href="#search" transform="translate(0 32)"></use>
  <use xlink:href="#address" transform="translate(32 32)"></use>
  <use xlink:href="#position" transform="translate(64 32)"></use>
  <use xlink:href="#left" transform="translate(96 32)"></use>
  <use xlink:href="#right" transform="translate(128 32)"></use>
  <use xlink:href="#up" transform="translate(160 32)"></use>
  <use xlink:href="#down" transform="translate(192 32)"></use>
  <use xlink:href="#maximise" transform="translate(224 32)"></use>
  <use xlink:href="#close" transform="translate(256 32)"></use>
  <use xlink:href="#move" transform="translate(288 32)"></use>
</g>

</svg>
